<?xml version="1.0" standalone="no"?>
<!DOCTYPE svg PUBLIC "-//W3C//DTD SVG 20010904//EN"
 "http://www.w3.org/TR/2001/REC-SVG-20010904/DTD/svg10.dtd">
<svg version="1.0" xmlns="http://www.w3.org/2000/svg"
 width="610.000000pt" height="610.000000pt" viewBox="0 0 610.000000 610.000000"
 preserveAspectRatio="xMidYMid meet">
<metadata>
Created by potrace 1.11, written by Peter Selinger 2001-2013
</metadata>
<g transform="translate(0.000000,610.000000) scale(0.100000,-0.100000)"
fill="#000000" stroke="none">
<path d="M3125 5669 c-62 -7 -130 -15 -190 -24 -65 -9 -206 -42 -308 -71 -509
-148 -977 -462 -1310 -879 -27 -33 -54 -67 -61 -76 -61 -75 -188 -285 -250
-414 -117 -241 -173 -416 -232 -721 -3 -16 -43 -44 -141 -100 -76 -43 -146
-83 -155 -89 -10 -5 -108 -62 -218 -125 -110 -63 -200 -118 -200 -122 0 -7
259 -158 272 -158 4 0 8 -4 8 -10 0 -5 4 -10 9 -10 5 0 104 -54 219 -121 l209
-121 11 -67 c6 -36 13 -75 15 -86 87 -373 255 -729 483 -1021 71 -91 95 -119
166 -197 l38 -40 1 1149 c0 632 2 1165 5 1184 70 579 546 1005 1124 1004 219
-1 437 -69 630 -196 75 -50 280 -249 280 -272 0 -2 16 -28 35 -58 87 -131 155
-326 170 -487 2 -25 4 -729 4 -1564 l1 -1519 43 6 c301 42 658 174 947 350
547 334 956 860 1144 1471 28 92 46 159 52 195 3 14 11 57 19 95 7 39 16 93
20 120 3 28 8 66 11 85 10 61 12 432 4 510 -20 173 -30 238 -50 325 -6 28 -13
59 -16 70 -15 76 -85 287 -119 362 -8 17 -15 34 -15 37 0 3 -21 50 -47 103
-202 425 -540 811 -933 1066 -130 84 -309 180 -396 212 -27 10 -53 22 -59 25
-5 4 -64 26 -130 48 -174 60 -343 98 -560 127 -74 10 -449 13 -530 4z"/>
<path d="M2540 3795 c-186 -38 -304 -192 -296 -384 12 -268 289 -433 532 -316
103 50 172 132 200 240 42 157 -27 329 -166 413 -90 54 -171 68 -270 47z"/>
</g>
</svg>
